# xmcd
#
# Track frame offsets:
#	150
#	11703
#	27712
#	40572
#	54839
#	65951
#	80818
#	95795
#	108320
#	121157
#
# Disc length: 1810 seconds
#
# Revision: 1
# Processed by: cddbd v1.5.1PL0 Copyright (c) Steve Scherf et al.
# Submitted via: audiograbber 1.82.02
#
DISCID=8607100a
DTITLE=Johnny Cash - Adventures
DYEAR=1900
DGENRE=
TTITLE0=Georgina on the fast train
TTITLE1=Johnes
TTITLE2=Fair father friends
TTITLE3=Paradise
TTITLE4=We must belive on magic
TTITLE5=Only love
TTITLE6=Good old American guest
TTITLE7=I'll cross over Jordan
TTITLE8=Sing a song
TTITLE9=Ain't gonna hobo no more
EXTD=
EXTT0=
EXTT1=
EXTT2=
EXTT3=
EXTT4=
EXTT5=
EXTT6=
EXTT7=
EXTT8=
EXTT9=
PLAYORDER=
